# xmcd CD database file
#
# Track frame offsets:
#	150
#	20262
#	45250
#	63030
#	93962
#	116952
#	138530
#	156262
#	174997
#	188592
#	204645
#	226260
#
# Disc length: 3194 seconds
#
# Revision: 3
# Processed by: cddbd v1.4PL0 Copyright (c) Steve Scherf et al.
# Submitted via: CDex 1.40Beta6
#
DISCID=930c780c
DTITLE=RB Morris - Take That Ride
DYEAR=1997
DGENRE=Folk-Rock
TTITLE0=World Owes Me
TTITLE1=Ridin' With O'Hanlon
TTITLE2=They Say There's A Time
TTITLE3=Hell On A Poor Boy
TTITLE4=Take Time To Love
TTITLE5=The Ballad of Thunder Road
TTITLE6=Take That Ride
TTITLE7=Roy
TTITLE8=Dog Days
TTITLE9=Pot Hole Street
TTITLE10=Bottom Of The Big Black Hull
TTITLE11=Glory Dreams
EXTD=
EXTT0=
EXTT1=
EXTT2=
EXTT3=
EXTT4=
EXTT5=
EXTT6=
EXTT7=
EXTT8=
EXTT9=
EXTT10=
EXTT11=
PLAYORDER=
